<?xml version="1.0" encoding="UTF-8"?>
<svg version="1.1" viewBox="0 0 2048 2048" width="1280" height="1280" xmlns="http://www.w3.org/2000/svg">
<path transform="translate(754,341)" d="m0 0h538l16 3 16 7 11 7 12 11 9 13 6 12 5 19 22 111 22 109 40 200 3 14 1 12-3 16-5 12-7 11-9 11-9 10-9 7-16 8-16 4-10 1h-697l-14-2-15-5-10-6-10-8-10-11-10-13-6-10-5-15-1-6v-11l6-31 7-33 6-31 6-29 6-31 6-29 6-31 20-100 20-101 8-36 6-15 9-14 12-12 14-9 12-5 11-3zm83 171-2 7-20 100-23 114-6 29v5h476l-2-12-22-111-26-130-1-2z"/>
<path transform="translate(242,1109)" d="m0 0h538l16 3 16 7 11 7 12 11 9 13 6 13 5 18 22 111 22 109 20 100 23 114 1 13-3 16-5 11-7 11-9 11-9 10-9 7-16 8-16 4-10 1h-697l-18-3-15-6-10-7-10-9-11-13-7-10-6-12-3-10-1-7v-10l5-25 12-59 6-31 6-29 6-31 6-29 6-31 6-29 6-31 29-145 5-18 7-14 7-10 11-11 14-9 12-5 11-3zm83 171-2 7-20 100-20 99-8 40-1 9h476l-2-12-22-111-26-130-1-2z"/>
<path transform="translate(1266,1109)" d="m0 0h538l16 3 16 7 11 7 12 11 9 13 6 12 5 19 80 400 7 34 1 12-3 16-5 12-7 11-9 11-9 10-9 7-16 8-16 4-10 1h-695l-14-3-12-5-16-9-16-13-7-7-8-11-6-12-3-10-1-7v-10l5-25 12-59 6-31 18-90 21-106 20-100 8-37 5-15 5-9 7-10 11-11 14-9 12-5 11-3zm83 171-2 7-20 100-23 114-6 29v5h476l-2-12-22-111-26-130-1-2z"/>
</svg>
