<?xml version="1.0" encoding="UTF-8"?>
<svg version="1.1" viewBox="0 0 2048 2048" width="1280" height="1280" xmlns="http://www.w3.org/2000/svg">
<path transform="translate(978)" d="m0 0h571v2l6 2 11 10 5 9 2 7v8l-3 10-12 20-7 11-11 17-15 24-24 38-15 23-11 18-12 19-14 22-12 19-8 13-11 17-15 24-14 22-8 13-10 15-16 26-11 17-12 19-10 16-14 22-10 16-35 55-12 19-14 22-10 16-24 38-14 22-8 13-11 17 405 1 10 3 6 4 5 5 6 8 4 13v7l-3 11-6 10-9 11-12 14-9 11-13 15-9 11-11 13-9 11-13 15-9 11-11 13-12 14-9 11-11 13-12 14-9 11-11 13-12 14-9 11-11 13-12 14-9 11-11 13-12 14-9 11-11 13-12 14-9 11-11 13-12 14-9 11-11 13-12 14-9 11-11 13-12 14-9 11-11 13-12 14-9 11-11 13-12 14-9 11-11 13-12 14-9 11-11 13-12 14-9 11-11 13-12 14-9 11-11 13-12 14-9 11-11 13-12 14-9 11-11 13-12 14-9 11-11 13-12 14-9 11-11 13-12 14-9 11-7 9h-2l-2 4-12 14-9 11-13 15-9 11-12 14-5 7h-2l-2 4-12 14-9 11-13 15-9 11-12 14-5 7h-2l-2 4-12 14-9 11-11 13-12 14-9 11-11 13-12 14-9 11-22 26-9 11-24 28-9 11-11 13-12 14-9 11-11 13-12 14-9 11-13 15-9 11-12 14-7 6-6 4-4 2v1h-27v-2l-5-2-8-8-6-11-1-4v-11l7-19 16-38 36-86 31-74 16-38 18-43 19-45 12-29 17-40 12-29 18-43 14-33 12-29 19-45 12-29 16-38 36-86 17-40 12-29 18-43 14-33 12-29-2 1h-341l-14-1-11-4-9-7-6-8-3-7-1-11 3-10 8-17 10-19 8-17 9-17 9-19 9-17 11-23 9-17 11-23 9-17 11-23 9-17 11-23 9-17 11-23 9-17 11-23 9-17 11-23 9-17 11-23 9-17 11-23 9-17 11-23 9-17 11-23 9-17 11-23 9-17 11-23 9-17 11-23 9-17 11-23 9-17 11-23 9-17 11-23 9-17 11-23 9-17 11-23 9-17 11-23 9-17 11-23 9-17 11-23 9-17 11-23 10-19 7-9 11-7zm33 69-10 19-461 922-6 11v2l346 1 11 2 8 4 10 9 4 8 1 9-3 14-14 34-15 36-13 31-17 41-18 43-10 24-11 26-20 48-16 38-17 41-18 43-10 24-18 43-13 31-25 60-11 26-17 41-18 43-15 36-14 33 1 2 12-14 11-13 9-11 13-15 9-11 13-15 9-11 12-14 9-11 8-9 9-11 12-14 9-11 1-3h2l9-11 11-13 7-8 9-11 11-13 9-11 13-15 9-11 12-14 11-13 5-6v-2h2l18-22 9-10 11-14 10-11 8-10 13-15 9-11 11-13 12-14 9-11 12-14 9-11 8-9 9-11 12-14 9-11 1-3h2l9-11 11-13 7-8 13-16 12-14 9-11 10-11 8-10 22-26 5-6v-2h2l9-11 11-13 7-8 13-16 12-14 9-11 13-15 11-13 9-11 12-14v-2h2l18-22 10-11 11-14 9-10 8-10 6-7v-2h2l9-11 11-13 7-8 9-11 22-26 9-11 8-9 9-11 12-14 9-11 1-3h2l9-11 11-13 7-8 9-11 22-26 9-11 12-14 9-11 1-3-400-1-10-3-8-6-6-7-4-8-1-4v-10l3-9 6-11 10-15 15-24 11-17 42-66 16-25 14-22 15-23 11-18 11-17 9-14 21-33 16-25 12-19 16-25 28-44 11-17 12-19 14-22 15-23 10-16 14-22 16-25 12-19 16-25 14-22 12-19 4-7z"/>
<path transform="translate(462,2047)" d="m0 0 2 1z"/>
</svg>
