<?xml version="1.0" encoding="UTF-8"?>
<svg version="1.1" viewBox="0 0 2048 2048" width="1280" height="1280" xmlns="http://www.w3.org/2000/svg">
<path transform="translate(1022,170)" d="m0 0 15 1 16 4 26 12 19 10 578 289 19 9 19 10 16 8 23 12 15 12 11 14 8 16 4 15 1 10v857l-1 16-5 18-8 15-7 9-10 10-14 9-688 344-15 5-11 2h-19l-15-3-13-5-16-8-17-9-162-81-21-10-19-10-19-9-48-24-23-12-17-8-19-10-322-161-12-7-12-11-7-8-8-13-5-13-3-16v-872l4-18 8-16 7-10 7-8 10-8 17-10 35-17 314-157 17-9 23-11 288-144 12-5 13-3zm-1 182-466 233-17 9-5 2v2l490 245 4-1 488-244-3-3-17-9-56-28-19-9-19-10-374-187zm-595 384v656l1 7 23 11 418 209 19 9 19 10 23 11 10 5v-662l-8-5-502-251zm1193 0-24 12-19 9-19 10-146 73-19 9-19 10-176 88-17 8-17 9-23 11-30 15-1 1v662l5-1 240-120 17-9 23-11 17-9 23-11 17-9 23-11 146-73 1-1v-662z" fill="#394251"/>
</svg>
