<svg width="58" height="52" viewBox="0 0 58 52" fill="none" xmlns="http://www.w3.org/2000/svg">
<path d="M55.3664 34.9106L38.3694 6.16982C36.1384 2.39857 32.7258 0.240234 28.9998 0.240234C25.2738 0.240234 21.8612 2.39857 19.6302 6.16398L2.63319 34.9106C0.373439 38.7286 0.126189 42.8002 1.95756 46.0815C3.78606 49.3657 7.35681 51.2498 11.7498 51.2498H46.2498C50.6428 51.2498 54.2136 49.3656 56.0421 46.0844C57.8734 42.8032 57.6262 38.7315 55.3664 34.9106ZM28.9998 41.1844C26.5446 41.1844 24.5436 39.1573 24.5436 36.6665C24.5436 34.1727 26.5417 32.1427 28.9998 32.1427C31.4579 32.1427 33.4561 34.1727 33.4561 36.6665C33.4561 39.1573 31.4551 41.1844 28.9998 41.1844ZM33.6947 19.5311C33.6631 19.6215 29.6668 29.6461 29.6668 29.6461C29.5576 29.9202 29.2931 30.1011 29.0027 30.1011C28.7123 30.1011 28.4478 29.9202 28.3386 29.6461L24.3394 19.6186C24.0979 19.0113 23.972 18.363 23.9686 17.7082C23.9686 14.8936 26.2254 12.604 28.9998 12.604C29.8146 12.6061 30.6168 12.8087 31.3375 13.1945C32.0581 13.5802 32.6758 14.1376 33.1375 14.8188C33.5991 15.4999 33.891 16.2846 33.988 17.1053C34.0851 17.9261 33.9844 18.7585 33.6947 19.5311Z" fill="#5571FF"/>
</svg>
